<svg version="1.1" xmlns="http://www.w3.org/2000/svg" viewBox="0 0 240.48865753478026 273.5761717626088" width="240.48865753478026" height="273.5761717626088">
  <!-- svg-source:excalidraw -->
  
  <defs>
    <style>
      @font-face {
        font-family: "Virgil";
        src: url("https://plus.excalidraw.com/Virgil.woff2");
      }
      @font-face {
        font-family: "Cascadia";
        src: url("https://plus.excalidraw.com/Cascadia.woff2");
      }
    </style>
  </defs>
  <rect x="0" y="0" width="240.48865753478026" height="273.5761717626088" fill="#ffffff"></rect><g stroke-linecap="round" transform="translate(103.02045327244878 10) rotate(0 49.20163170163153 6.305361305361387)"><path d="M0.33 1.62 C0.33 1.62, 0.33 1.62, 0.33 1.62 M0.33 1.62 C0.33 1.62, 0.33 1.62, 0.33 1.62 M0.07 8.01 C0.91 6.94, 3.36 5.87, 5.32 1.98 M0.07 8.01 C2.44 6.14, 4.07 3.29, 5.32 1.98 M1.78 12.15 C5.78 8.53, 7.15 6.35, 10.96 1.58 M1.78 12.15 C3.88 9.16, 7.01 6.58, 10.96 1.58 M5.45 14.02 C10.52 8.21, 13.93 4.87, 15.95 1.94 M5.45 14.02 C9.37 9.65, 13.89 5.27, 15.95 1.94 M10.44 14.38 C13.8 10.62, 16.98 6.71, 20.94 2.3 M10.44 14.38 C13.72 10.06, 18.53 5.87, 20.94 2.3 M16.08 13.98 C19.53 10.14, 21.56 7.62, 26.58 1.91 M16.08 13.98 C19.73 8.9, 23.4 4.73, 26.58 1.91 M21.07 14.34 C24.45 12, 28.64 8.68, 31.57 2.27 M21.07 14.34 C25.1 10.07, 28.34 6.14, 31.57 2.27 M26.06 14.7 C29.08 10.18, 32.07 7.12, 37.21 1.87 M26.06 14.7 C30.26 10.55, 34.25 5.68, 37.21 1.87 M31.7 14.31 C35.19 9.19, 37.57 6.71, 42.2 2.23 M31.7 14.31 C36.55 8.98, 40.35 5.24, 42.2 2.23 M36.69 14.67 C40.55 11.05, 40.9 8.14, 47.84 1.84 M36.69 14.67 C38.84 11.31, 42.12 7.87, 47.84 1.84 M42.33 14.27 C46.38 9.16, 51.45 6.07, 52.83 2.2 M42.33 14.27 C44.41 11.69, 47.41 9.21, 52.83 2.2 M47.32 14.63 C49.99 11.3, 53.09 5.81, 58.47 1.8 M47.32 14.63 C49.06 12.59, 53.02 8.52, 58.47 1.8 M52.96 14.24 C54.57 11.85, 59.22 7.51, 63.46 2.16 M52.96 14.24 C54.24 12.08, 57.42 9.4, 63.46 2.16 M57.95 14.6 C61.79 11.59, 63.72 6.13, 69.1 1.77 M57.95 14.6 C62.14 11.42, 65.36 6.2, 69.1 1.77 M63.59 14.2 C64.87 10.17, 67.76 7.14, 74.09 2.13 M63.59 14.2 C66.13 11.16, 67.61 8.62, 74.09 2.13 M68.58 14.56 C69.75 12.93, 73.06 9.57, 79.73 1.73 M68.58 14.56 C71.8 11.1, 73.62 9.48, 79.73 1.73 M74.22 14.17 C79.19 11.01, 82.91 7.2, 84.72 2.09 M74.22 14.17 C78.27 10.57, 80.86 5.85, 84.72 2.09 M79.21 14.53 C82.51 9.93, 88.19 4.3, 90.36 1.7 M79.21 14.53 C84.04 10.24, 87.28 4.74, 90.36 1.7 M84.85 14.14 C89.78 11.31, 92.47 5.32, 96.01 1.31 M84.85 14.14 C89.22 9.15, 93.22 4.51, 96.01 1.31 M89.84 14.5 C92.97 12.77, 93.6 9.15, 99.68 3.17 M89.84 14.5 C91.61 11.82, 94 9.72, 99.68 3.17 M96.14 13.35 C96.61 12.23, 97.91 11.56, 98.76 10.33 M96.14 13.35 C96.66 12.87, 97.39 12, 98.76 10.33" stroke="#868e96" stroke-width="0.5" fill="none"></path><path d="M3.15 0 M3.15 0 C28.52 -1.95, 53.81 1.36, 95.25 0 M3.15 0 C25.6 0.81, 50.15 1.13, 95.25 0 M95.25 0 C96.96 1.55, 99.09 1.45, 98.4 3.15 M95.25 0 C95.45 0.05, 97.66 2.05, 98.4 3.15 M98.4 3.15 C97.83 4.45, 98.71 6.34, 98.4 9.46 M98.4 3.15 C98.49 5.66, 98.49 7.86, 98.4 9.46 M98.4 9.46 C99.85 12.41, 95.77 11.76, 95.25 12.61 M98.4 9.46 C99.04 9.89, 97.96 13.93, 95.25 12.61 M95.25 12.61 C75.36 12.24, 51.83 12.08, 3.15 12.61 M95.25 12.61 C74.43 11.95, 51.48 12.14, 3.15 12.61 M3.15 12.61 C2.41 14.33, -0.36 10.73, 0 9.46 M3.15 12.61 C1 14.47, -0.95 9.94, 0 9.46 M0 9.46 C0.4 8.03, 0.1 6, 0 3.15 M0 9.46 C0.18 7.78, 0.06 5.91, 0 3.15 M0 3.15 C-1.11 -0.82, 0.03 2, 3.15 0 M0 3.15 C-1.08 2.82, -0.8 -0.55, 3.15 0" stroke="#000000" stroke-width="1" fill="none"></path></g><g stroke-linecap="round"><g transform="translate(192.2046024565975 21.072261072261483) rotate(0 -41.81089891591864 104.77196408776105)"><path d="M1.05 -0.33 C6.69 23.16, 43.26 106.66, 34.94 141.9 C26.62 177.13, -22.76 214.04, -48.87 211.09 C-74.98 208.13, -116.73 159.2, -121.69 124.17 C-126.65 89.14, -85.83 21.61, -78.62 0.88 M0.15 -1.54 C6.06 22.07, 45.43 108.34, 37.15 143.48 C28.87 178.62, -23.02 212.38, -49.52 209.31 C-76.02 206.25, -117.29 159.71, -121.86 125.08 C-126.42 90.44, -84.31 21.99, -76.89 1.5" stroke="#000000" stroke-width="1" fill="none"></path></g></g><g stroke-linecap="round"><g transform="translate(192.61009895404982 22.211871408440572) rotate(0 -39.43221500789616 0.9348083881564122)"><path d="M0.41 -0.68 C-12.59 -0.28, -65.32 0.91, -78.26 1.21 M-0.84 1.58 C-13.97 2.25, -66.5 2.45, -79.27 2.55" stroke="#000000" stroke-width="1" fill="none"></path></g></g><g stroke-linecap="round"><g transform="translate(133.56823882023377 33.79953379953423) rotate(0 -12.457586424744363 6.107509343245681)"><path d="M-1.11 0 C-5.17 1.92, -20.77 10.06, -24.5 12.06 M0.51 -1.04 C-3.69 0.98, -21.39 10.91, -25.43 13.25" stroke="#000000" stroke-width="1" fill="none"></path></g></g><g stroke-linecap="round"><g transform="translate(144.93187518387003 33.34498834498879) rotate(0 -21.065292817760565 10.768575696376217)"><path d="M0.81 -1.19 C-6.53 2.44, -35.74 19, -42.94 22.73 M-0.22 0.8 C-7.27 4.01, -33.41 17.52, -40.58 21.09" stroke="#000000" stroke-width="1" fill="none"></path></g></g><g stroke-linecap="round"><g transform="translate(161.29551154750652 36.52680652680698) rotate(0 -28.80781092381585 13.746847425431724)"><path d="M0.19 -0.81 C-0.37 -0.76, 7.63 -4.21, -2.45 0.66 C-12.53 5.54, -50.82 23.91, -60.29 28.46 M-1.16 1.39 C-1.9 1.58, 6.42 -2.61, -3.02 2.07 C-12.45 6.75, -48.47 25.04, -57.78 29.44" stroke="#000000" stroke-width="1" fill="none"></path></g></g><g stroke-linecap="round"><g transform="translate(178.11369336568828 41.07226107226154) rotate(0 -42.302281541594425 21.18316023862539)"><path d="M0.07 -0.63 C-13.98 6.27, -69.55 34.8, -83.69 42.05 M-1.36 1.66 C-15.62 8.6, -71.15 35.92, -84.67 43" stroke="#000000" stroke-width="1" fill="none"></path></g></g><g stroke-linecap="round"><g transform="translate(191.29551154750652 46.98135198135242) rotate(0 -52.90563939241906 25.78003787673711)"><path d="M-1.18 -0.95 C-18.94 7.38, -88.74 42.28, -106.21 51.11 M0.4 1.16 C-17 10.18, -85.98 44.37, -103.9 52.51" stroke="#000000" stroke-width="1" fill="none"></path></g></g><g stroke-linecap="round"><g transform="translate(198.11369336568828 54.25407925407973) rotate(0 -59.63096259225199 29.070514785024216)"><path d="M0.09 -1.04 C-19.73 9, -98.95 49.48, -118.64 59.18 M-1.33 1.03 C-21.28 10.85, -99.86 48.09, -119.35 57.59" stroke="#000000" stroke-width="1" fill="none"></path></g></g><g stroke-linecap="round"><g transform="translate(199.93187518387003 65.6177156177161) rotate(0 -61.30890926198231 30.764279653673867)"><path d="M-0.22 -0.52 C-20.59 9.72, -101.34 51.69, -121.74 62.05 M-1.79 1.83 C-22.32 11.66, -102.11 50.08, -122.4 60.28" stroke="#000000" stroke-width="1" fill="none"></path></g></g><g stroke-linecap="round"><g transform="translate(202.20460245659729 79.25407925407978) rotate(0 -62.1286717923806 30.545781980996736)"><path d="M-0.82 -0.66 C-21.51 9.52, -103.57 51.46, -124.04 61.75 M0.95 1.6 C-19.93 11.35, -104.31 49.72, -125.2 59.84" stroke="#000000" stroke-width="1" fill="none"></path></g></g><g stroke-linecap="round"><g transform="translate(208.56823882023377 90.16317016317055) rotate(0 -64.03219337142377 29.70238877187441)"><path d="M-0.05 -0.5 C-21.14 9.67, -106.07 50.85, -127.61 61.21 M-1.54 -1.8 C-22.61 7.97, -106.54 48.99, -128.01 59.24" stroke="#000000" stroke-width="1" fill="none"></path></g></g><g stroke-linecap="round"><g transform="translate(210.84096609296103 101.52680652680704) rotate(0 -64.17676388363941 31.146841964444434)"><path d="M-0.21 1.15 C-21.71 11.47, -107.08 51.71, -128.14 61.58 M-1.78 0.71 C-22.97 10.75, -105.02 49.89, -125.89 60.05" stroke="#000000" stroke-width="1" fill="none"></path></g></g><g stroke-linecap="round"><g transform="translate(214.02278427477927 114.25407925407978) rotate(0 -60.03211875042837 29.46216170911464)"><path d="M1.17 -0.69 C-18.96 8.89, -99.97 48.62, -120.5 58.59 M0.32 1.56 C-19.95 11.78, -101.23 49.84, -121.23 59.62" stroke="#000000" stroke-width="1" fill="none"></path></g></g><g stroke-linecap="round"><g transform="translate(215.84096609296103 126.52680652680704) rotate(0 -59.49168032285854 27.774819259989812)"><path d="M0.2 -0.5 C-19.73 8.86, -99.54 46.4, -119.18 56.01 M-1.16 -1.81 C-20.75 7.73, -97.5 47.86, -116.99 57.36" stroke="#000000" stroke-width="1" fill="none"></path></g></g><g stroke-linecap="round"><g transform="translate(217.65914791114278 137.4358974358978) rotate(0 -56.40869432349098 28.660102755286033)"><path d="M0.92 -0.45 C-18.08 9.02, -94.93 47.87, -113.73 57.9 M-0.06 -1.73 C-18.72 8.39, -92.86 49.1, -111.55 59.05" stroke="#000000" stroke-width="1" fill="none"></path></g></g><g stroke-linecap="round"><g transform="translate(219.02278427477927 146.98135198135253) rotate(0 -52.942600868541604 29.869155321070764)"><path d="M-0.99 1.1 C-18.78 10.86, -88.29 49.77, -105.89 59.1 M0.7 0.63 C-17.29 10.01, -88.56 47.93, -106.58 57.46" stroke="#000000" stroke-width="1" fill="none"></path></g></g><g stroke-linecap="round"><g transform="translate(217.20460245659729 159.70862470862505) rotate(0 -48.06626777718043 27.580097503283667)"><path d="M-0.03 1.18 C-15.82 9.79, -79.24 44.31, -95.26 52.82 M-1.5 0.75 C-17.38 10.09, -80.75 45.65, -96.11 54.41" stroke="#000000" stroke-width="1" fill="none"></path></g></g><g stroke-linecap="round"><g transform="translate(209.02278427477927 179.70862470862505) rotate(0 -35.26548593838879 19.651024217903625)"><path d="M-0.8 -1.12 C-12.57 5.53, -59.06 33.72, -70.84 40.43 M0.99 0.9 C-10.88 7.15, -59.3 32.01, -71.52 38.53" stroke="#000000" stroke-width="1" fill="none"></path></g></g><g stroke-linecap="round"><g transform="translate(22.13467238666749 134.24371924371962) rotate(0 -3.310057178136617 -1.6701876092829195)"><path d="M0.89 -1.03 C-0.33 -1.58, -5.46 -2.09, -6.5 -2.43 M-0.1 1.05 C-1.56 0.04, -6.61 -3.89, -7.51 -4.39" stroke="#e67700" stroke-width="1" fill="none"></path></g></g><g stroke-linecap="round"><g transform="translate(21.225581477576725 136.97099197099237) rotate(0 -5.647612068054173 1.3334518321933047)"><path d="M-0.07 0.68 C-1.85 0.98, -8.79 2.33, -10.65 2.68 M-1.57 -0.01 C-3.44 -0.11, -9.5 0.85, -11.23 1.01" stroke="#e67700" stroke-width="1" fill="none"></path></g></g><g stroke-linecap="round"><g transform="translate(21.680126932121993 138.33462833462886) rotate(0 -4.247363840314392 4.983053981953816)"><path d="M0.55 0.98 C-0.78 2.4, -7.74 6.71, -9.04 7.89 M-0.62 0.46 C-1.48 2.15, -5.62 8, -6.78 9.51" stroke="#e67700" stroke-width="1" fill="none"></path></g></g><g stroke-linecap="round"><g transform="translate(25.013942030642966 140.48486680839653) rotate(0 -3.072685448533207 5.064624562091183)"><path d="M-0.07 -0.64 C-0.97 1.06, -5.05 7.81, -6.08 9.5 M-1.56 1.64 C-2.01 3.56, -3.32 9.29, -3.67 10.77" stroke="#e67700" stroke-width="1" fill="none"></path></g></g><g stroke-linecap="round"><g transform="translate(26.582569481623295 141.2691805338867) rotate(0 0.03462672782143272 4.041886576221287)"><path d="M0.07 -1.07 C0.38 0.55, 1.28 7.42, 1.42 9.15 M-1.35 0.99 C-1.21 2.27, -0.58 6.16, 0.19 7.2" stroke="#e67700" stroke-width="1" fill="none"></path></g></g><g stroke-linecap="round"><g transform="translate(25.210020462015564 133.42604327898482) rotate(0 -2.101119960527626 -3.184163647057318)"><path d="M0.12 1.12 C-0.32 0.4, -2.81 -4.33, -3.63 -5.47 M-1.28 0.66 C-1.75 -0.35, -3.55 -6.63, -4.32 -7.48" stroke="#e67700" stroke-width="1" fill="none"></path></g></g><g stroke-linecap="round"><g transform="translate(21.082569481623068 136.89467072996501) rotate(0 -1.1097016205917498 -1.2930753518873814)"><path d="M-0.69 -0.04 C-1.11 -0.23, -2.5 -0.61, -2.83 -0.79 M1.15 -1.11 C0.67 -1.67, -2.69 -2.17, -3.37 -2.54" stroke="#c92a2a" stroke-width="1" fill="none"></path></g></g><g stroke-linecap="round"><g transform="translate(20.582569481623068 139.09467072996506) rotate(0 -1.4203747692238267 0.899514795346164)"><path d="M-0.43 0.54 C-0.97 0.54, -3.25 0.88, -3.67 0.94 M1.55 -0.23 C0.92 -0.18, -3.62 1.69, -4.39 2.03" stroke="#c92a2a" stroke-width="1" fill="none"></path></g></g><g stroke-linecap="round"><g transform="translate(76.38256948162302 107.89467072996501) rotate(0 -26.89902734811119 16.163805486965117)"><path d="M-1.1 0.74 C-9.49 4.79, -43.52 20.19, -50.46 25.12 C-57.39 30.05, -50.69 31.62, -42.71 30.32 C-34.74 29.03, -9.18 19.74, -2.61 17.32 M0.53 0.09 C-8.02 4.19, -44.14 20.94, -51.43 26.19 C-58.72 31.45, -50.88 33.41, -43.22 31.6 C-35.55 29.8, -11.9 17.96, -5.45 15.36" stroke="#000000" stroke-width="1" fill="none"></path></g></g><g stroke-linecap="round"><g transform="translate(25.93256948162275 141.39467072996501) rotate(0 -2.441829104721478 0.7824587037926278)"><path d="M0.14 -0.05 C-0.89 0.56, -4.35 2.51, -5.03 2.68 M-1.24 -1.12 C-2 -0.75, -2.24 0.53, -2.8 1.02" stroke="#c92a2a" stroke-width="1" fill="none"></path></g></g><g stroke-linecap="round" transform="translate(86.2754839560505 131.99957185671497) rotate(0 64.5 65.5)"><path d="M95 8.08 C103.94 12.04, 113.41 21.23, 119.16 29.63 C124.92 38.03, 128.83 48.46, 129.51 58.48 C130.2 68.5, 127.17 80.05, 123.3 89.73 C119.42 99.41, 114.06 109.88, 106.27 116.58 C98.48 123.27, 86.64 128.07, 76.57 129.91 C66.49 131.74, 55.3 130.39, 45.83 127.57 C36.36 124.75, 26.97 120.08, 19.75 112.98 C12.54 105.88, 5.58 95.01, 2.54 84.96 C-0.49 74.91, -0.44 62.82, 1.55 52.68 C3.54 42.53, 8.17 31.86, 14.5 24.09 C20.82 16.32, 30.27 9.96, 39.51 6.06 C48.76 2.16, 60.23 0.22, 69.95 0.67 C79.68 1.11, 93.28 6.9, 97.85 8.75 C102.42 10.61, 98.08 10.77, 97.38 11.78 M92.56 7.64 C101.4 11.17, 109.49 19.02, 115.44 26.79 C121.4 34.55, 126.51 44.16, 128.3 54.23 C130.09 64.31, 129.54 77.55, 126.18 87.24 C122.82 96.94, 115.86 105.53, 108.12 112.41 C100.38 119.3, 89.57 125.56, 79.75 128.56 C69.94 131.55, 58.77 132.56, 49.23 130.38 C39.69 128.2, 29.96 122.62, 22.5 115.48 C15.04 108.34, 8.17 96.99, 4.45 87.55 C0.74 78.1, -0.88 68.77, 0.18 58.8 C1.25 48.83, 4.83 36.27, 10.83 27.73 C16.83 19.19, 26.98 12.04, 36.2 7.54 C45.43 3.05, 56.72 1.15, 66.19 0.77 C75.65 0.39, 88.54 4.12, 92.97 5.27 C97.4 6.43, 93.61 6.31, 92.76 7.69" stroke="#000000" stroke-width="4" fill="none"></path></g><g stroke-linecap="round"><g transform="translate(155.79636154262698 192.34215953087596) rotate(0 14.400567283707119 -24.961069777460807)"><path d="M-0.57 0.01 C4.3 -7.88, 24.48 -40.26, 29.37 -48.36 M1.33 -1.03 C6.05 -9.14, 24.17 -41.7, 28.59 -49.93" stroke="#000000" stroke-width="1" fill="none"></path></g></g><g stroke-linecap="round" transform="translate(141.0046119708934 191.42999857285588) rotate(0 9.848484848484759 9.545454545454561)"><path d="M8.56 -0.69 C10.61 -1.19, 13.72 0.26, 15.61 1.35 C17.5 2.43, 19.22 3.83, 19.9 5.82 C20.59 7.8, 20.62 11.27, 19.71 13.29 C18.79 15.3, 16.25 17.01, 14.42 17.92 C12.59 18.84, 10.83 19.31, 8.72 18.79 C6.62 18.27, 3.25 16.46, 1.76 14.82 C0.28 13.18, -0.42 10.87, -0.19 8.94 C0.03 7.02, 1.62 4.85, 3.11 3.26 C4.6 1.68, 7.44 -0.17, 8.74 -0.56 C10.03 -0.95, 10.7 0.72, 10.86 0.9 M11.57 -1.13 C13.74 -0.91, 15.48 1.07, 17.03 2.61 C18.58 4.16, 20.72 6.15, 20.85 8.17 C20.98 10.18, 19.3 12.79, 17.81 14.73 C16.31 16.66, 14.26 19.3, 11.88 19.78 C9.51 20.26, 5.48 18.87, 3.57 17.61 C1.66 16.36, 0.94 14.28, 0.42 12.25 C-0.1 10.22, -0.47 7.18, 0.43 5.41 C1.34 3.64, 4.1 2.36, 5.86 1.62 C7.63 0.87, 9.98 1.03, 11.03 0.95 C12.07 0.86, 12.03 1.1, 12.14 1.12" stroke="none" stroke-width="0" fill="#fd7e14"></path><path d="M13.91 1.05 C15.83 1.65, 17.37 2.66, 18.27 4.3 C19.18 5.94, 19.68 8.76, 19.35 10.89 C19.03 13.02, 17.88 15.67, 16.34 17.08 C14.81 18.5, 12.42 19.29, 10.16 19.38 C7.91 19.47, 4.5 18.97, 2.83 17.62 C1.17 16.26, 0.55 13.4, 0.18 11.27 C-0.19 9.14, -0.44 6.64, 0.61 4.84 C1.67 3.03, 4.22 1.05, 6.52 0.44 C8.83 -0.17, 12.91 0.63, 14.44 1.16 C15.97 1.68, 15.74 3.45, 15.71 3.57 M6.56 0.07 C8.44 -0.61, 10.41 0.13, 12.62 0.83 C14.84 1.53, 18.84 2.59, 19.85 4.27 C20.85 5.95, 19.18 8.89, 18.65 10.9 C18.11 12.91, 18.31 15.01, 16.65 16.35 C14.98 17.69, 10.98 19.15, 8.66 18.94 C6.34 18.73, 4.09 16.26, 2.74 15.09 C1.39 13.92, 0.7 13.45, 0.55 11.91 C0.4 10.38, 0.83 7.91, 1.84 5.88 C2.84 3.84, 5.48 0.51, 6.57 -0.29 C7.66 -1.08, 8.05 0.93, 8.38 1.1" stroke="#000000" stroke-width="1" fill="none"></path></g><g stroke-linecap="round"><g transform="translate(146.63777833160998 193.2671211184819) rotate(0 -4.876998153321324 -28.650310241882494)"><path d="M-1.07 0.33 C-2.53 -9.18, -8.16 -48.11, -9.58 -57.63 M0.57 -0.55 C-0.95 -9.83, -8.54 -46.54, -10.33 -56.27" stroke="#000000" stroke-width="1" fill="none"></path></g></g><g stroke-linecap="round"><g transform="translate(141.51790819847497 199.90866276580596) rotate(0 -23.449949502871277 -16.758969768169038)"><path d="M-0.8 1 C-8.58 -4.68, -39.65 -26.98, -47.36 -32.93 M0.98 0.48 C-6.83 -5.01, -39.85 -28.82, -47.88 -34.52" stroke="#000000" stroke-width="1" fill="none"></path></g></g><g stroke-linecap="round"><g transform="translate(144.24518092574772 206.87835973550295) rotate(0 -27.57070205741354 2.9961542830511974)"><path d="M1.11 -0.15 C-8.2 0.8, -45.57 4.62, -55.04 5.74 M0.24 -1.27 C-9.34 -0.12, -47.31 6.28, -56.25 7.26" stroke="#000000" stroke-width="1" fill="none"></path></g></g><g stroke-linecap="round"><g transform="translate(146.0633627439297 208.0904809476242) rotate(0 -18.56043751250479 18.521835986921502)"><path d="M-0.89 -0.22 C-7.16 6.31, -30.84 31.87, -37 38.42 M0.84 -1.38 C-5.65 4.84, -31.92 29.98, -37.96 36.42" stroke="#000000" stroke-width="1" fill="none"></path></g></g><g stroke-linecap="round"><g transform="translate(151.21487789544472 211.1207839779272) rotate(0 0.7792167052031118 25.79082559652224)"><path d="M0.34 -0.87 C0.21 7.65, 0.29 42.57, 0.27 51.33 M-0.93 1.28 C-0.79 9.93, 1.91 43.88, 2.49 52.46" stroke="#000000" stroke-width="1" fill="none"></path></g></g><g stroke-linecap="round"><g transform="translate(157.27548395605095 208.6965415536847) rotate(0 19.214411701564018 20.226633954123997)"><path d="M0.86 0.98 C7.21 7.38, 32.55 32.1, 38.58 38.52 M-0.15 0.45 C6.03 7.04, 31.23 33.8, 37.82 40" stroke="#000000" stroke-width="1" fill="none"></path></g></g><g stroke-linecap="round"><g transform="translate(160.30578698635395 198.99957185671508) rotate(0 24.82030954072377 -12.03205754628243)"><path d="M0.99 -0.12 C9.08 -3.93, 41.85 -20.19, 49.59 -23.95 M0.05 -1.22 C8 -4.76, 40.95 -18.63, 49.25 -22.49" stroke="#000000" stroke-width="1" fill="none"></path></g></g><g stroke-linecap="round"><g transform="translate(161.09637780421917 203.26174073817117) rotate(0 24.435569135280275 6.686976797023476)"><path d="M-0.42 -0.49 C7.79 1.72, 41.04 11.71, 49.29 14.15 M1.56 -1.8 C9.61 0.46, 40.61 12.38, 48.39 15.17" stroke="#000000" stroke-width="1" fill="none"></path></g></g></svg>