<svg version="1.1" xmlns="http://www.w3.org/2000/svg" viewBox="0 0 996.6772806215072 711.7244893816016" width="996.6772806215072" height="711.7244893816016">


  <g stroke-linecap="round" transform="translate(382.5641689435831 517.4781278997873) rotate(0 31.83250354279113 31.83250354279113)"><path d="M10.67 9.31 C15.22 5, 24.54 -0.35, 31.44 -0.57 C38.33 -0.78, 47.05 3.4, 52.02 8.02 C56.99 12.64, 60.21 20.65, 61.26 27.15 C62.3 33.65, 61.39 40.98, 58.3 47.01 C55.2 53.04, 48.51 60.61, 42.68 63.33 C36.85 66.05, 29.34 65.86, 23.31 63.35 C17.28 60.85, 10.23 54.4, 6.5 48.3 C2.78 42.2, -1.93 34.81, 0.95 26.75 C3.82 18.68, 17.23 3.81, 23.75 -0.1 C30.28 -4, 39.81 2.83, 40.1 3.32 M24.27 0.95 C30.84 0.07, 40.24 2.77, 46.44 6.19 C52.64 9.61, 58.86 15.88, 61.45 21.47 C64.03 27.06, 63.7 33.86, 61.97 39.73 C60.24 45.6, 57.03 52.79, 51.08 56.7 C45.13 60.6, 33.88 64.07, 26.27 63.15 C18.67 62.23, 9.79 56.27, 5.44 51.19 C1.09 46.1, 0.33 39.62, 0.17 32.64 C0.02 25.66, 0.33 15.08, 4.52 9.3 C8.72 3.53, 21.86 -0.76, 25.32 -2.01 C28.78 -3.26, 25.36 0.72, 25.26 1.79" stroke="none" stroke-width="0" fill="#61dbfb"></path><path d="M40.62 -0.31 C47.05 0.58, 55.03 6.22, 58.71 12.3 C62.38 18.37, 63.66 29.02, 62.69 36.14 C61.72 43.26, 57.47 50.34, 52.9 55.02 C48.32 59.71, 41.58 63.72, 35.23 64.24 C28.87 64.77, 20.45 61.96, 14.76 58.17 C9.06 54.38, 2.97 47.99, 1.08 41.52 C-0.81 35.05, 0.66 25.87, 3.42 19.37 C6.18 12.87, 9.39 4.53, 17.62 2.52 C25.86 0.51, 45.73 4.91, 52.85 7.31 C59.96 9.72, 61.22 16.98, 60.32 16.98 M7.93 9.4 C11.61 4.42, 20.54 4.32, 26.86 3.13 C33.19 1.94, 40.18 -0.86, 45.89 2.27 C51.61 5.4, 58.29 15.36, 61.14 21.91 C63.99 28.45, 65.33 34.81, 62.99 41.52 C60.65 48.22, 53.37 58.11, 47.1 62.14 C40.83 66.17, 32.09 67.02, 25.37 65.68 C18.65 64.34, 11.4 59.25, 6.8 54.08 C2.19 48.91, -2.09 41.8, -2.24 34.65 C-2.4 27.51, 4.35 15.1, 5.88 11.21 C7.41 7.32, 6.46 10.47, 6.93 11.31" stroke="#61dbfb" stroke-width="2" fill="none"></path></g><g stroke-linecap="round"><g transform="translate(382.14490086743285 480.44765737872126) rotate(0 34.86054984469382 74.98869076553126)"><path d="M-0.49 0.77 C-12.91 4.88, -50.69 13.27, -71.8 23.47 C-92.91 33.67, -122.8 46.45, -127.16 61.98 C-131.52 77.51, -125.06 102.06, -97.96 116.65 C-70.86 131.23, -8.78 149.5, 35.43 149.5 C79.63 149.51, 140.8 131.39, 167.26 116.66 C193.72 101.94, 201.93 78.9, 194.2 61.16 C186.47 43.41, 153.23 19.95, 120.88 10.19 C88.54 0.44, 20.24 4, 0.15 2.63 M-4.2 -1.28 C-17.23 2.14, -53.23 8.54, -74.01 19.41 C-94.79 30.28, -125.05 47.51, -128.88 63.94 C-132.7 80.38, -125.1 103.45, -96.96 118 C-68.82 132.56, -4.47 151.84, 39.98 151.25 C84.43 150.67, 143.65 129.95, 169.74 114.49 C195.83 99.03, 204.88 75.94, 196.53 58.48 C188.17 41.03, 153.01 19.4, 119.63 9.78 C86.26 0.16, 15.83 2.09, -3.72 0.79" stroke="#61dbfb" stroke-width="4" fill="none"></path></g></g><g stroke-linecap="round"><g transform="translate(380.4290015558429 477.23510255291035) rotate(56.50460372560219 34.375415542352414 71.86713104042553)"><path d="M0.77 0.04 C-10.71 3.77, -48.39 11.09, -70.09 21.89 C-91.79 32.69, -124.29 48.87, -129.44 64.86 C-134.6 80.84, -128.94 104.21, -101.02 117.8 C-73.1 131.39, -6.97 146.43, 38.09 146.4 C83.15 146.37, 143.43 131.63, 169.36 117.63 C195.29 103.63, 201.97 80.38, 193.65 62.38 C185.33 44.38, 151.29 19.95, 119.45 9.61 C87.62 -0.73, 22.21 2.22, 2.63 0.35 M-2.25 -2.41 C-13.84 1.87, -51.13 13.81, -71.38 25.61 C-91.63 37.41, -118.71 52.69, -123.76 68.38 C-128.81 84.08, -128.22 106.78, -101.68 119.79 C-75.15 132.8, -10.33 147.1, 35.45 146.46 C81.22 145.83, 146.27 130.33, 172.98 115.98 C199.68 101.63, 204.93 78.22, 195.67 60.38 C186.41 42.53, 150.02 19.41, 117.43 8.89 C84.83 -1.63, 20.31 -0.65, 0.1 -2.73" stroke="#61dbfb" stroke-width="4" fill="none"></path></g></g><g stroke-linecap="round"><g transform="translate(375.5040004414916 479.7102630327488) rotate(118.6814122905976 34.5021679148706 74.71427490535513)"><path d="M0.04 1.75 C-11.82 4.89, -50.57 9.6, -71.67 19.61 C-92.77 29.62, -121.87 44.99, -126.57 61.8 C-131.26 78.61, -126.79 106.02, -99.86 120.47 C-72.94 134.92, -10.05 149.06, 34.98 148.5 C80.02 147.93, 143.68 131.67, 170.33 117.08 C196.98 102.49, 203.45 78.45, 194.87 60.95 C186.3 43.45, 151.3 21.92, 118.88 12.09 C86.46 2.25, 20.43 4.02, 0.35 1.94 M-3.38 0.23 C-15.56 3.59, -53.05 11.52, -73.82 22.09 C-94.58 32.66, -123.61 48.13, -127.96 63.66 C-132.31 79.19, -127.77 100.92, -99.9 115.26 C-72.02 129.6, -4.99 149.72, 39.29 149.7 C83.58 149.68, 140.89 130.38, 165.83 115.13 C190.77 99.87, 197.14 75.24, 188.92 58.17 C180.71 41.1, 148.59 22.45, 116.54 12.71 C84.48 2.97, 16.13 2.12, -3.41 -0.27" stroke="#61dbfb" stroke-width="4" fill="none"></path></g></g><g stroke-linecap="round" transform="translate(789.0641689435827 197.97812789978744) rotate(0 31.832503542791187 31.83250354279116)"><path d="M56.59 10.2 C61.41 15.14, 63.32 25.39, 63.43 32.17 C63.53 38.95, 61.06 45.51, 57.23 50.87 C53.4 56.22, 47.24 62.65, 40.45 64.28 C33.66 65.91, 23 63.97, 16.48 60.65 C9.96 57.32, 3.98 51.01, 1.32 44.33 C-1.35 37.64, -1.55 27.4, 0.51 20.54 C2.56 13.67, 7.75 6.69, 13.62 3.12 C19.49 -0.45, 27.48 -3.85, 35.72 -0.88 C43.95 2.1, 58.57 14.42, 63.05 20.97 C67.53 27.52, 63.26 37.84, 62.59 38.42 M11.04 9.46 C14.27 4.43, 19.42 -0.63, 25.32 -1.18 C31.22 -1.74, 39.83 2.48, 46.45 6.12 C53.07 9.76, 62.93 14.11, 65.06 20.65 C67.18 27.18, 62.17 39.09, 59.2 45.33 C56.22 51.58, 52.67 55.47, 47.19 58.13 C41.71 60.8, 32.92 62.92, 26.32 61.31 C19.71 59.69, 12.32 53.4, 7.57 48.44 C2.83 43.48, -2.54 38.29, -2.14 31.54 C-1.73 24.8, 7.75 11.44, 10 7.98 C12.24 4.51, 11.66 10.21, 11.32 10.76" stroke="none" stroke-width="0" fill="#40c057"></path><path d="M31.41 0.56 C38.12 -0.23, 47.06 1.21, 52.13 5.86 C57.21 10.5, 60.99 21.51, 61.88 28.43 C62.78 35.34, 60.67 41.77, 57.49 47.35 C54.3 52.92, 49.13 59.2, 42.78 61.88 C36.44 64.56, 25.75 65.76, 19.42 63.44 C13.09 61.11, 8.2 54, 4.82 47.91 C1.44 41.83, -1.94 33.91, -0.86 26.93 C0.23 19.94, 2.02 9.24, 11.33 6.01 C20.64 2.77, 46.56 4.01, 55.01 7.51 C63.46 11.02, 63 26.53, 62.03 27.02 M8.25 15.23 C10.78 9.16, 14.46 0.85, 20.99 -1.18 C27.52 -3.21, 41.3 -0.48, 47.43 3.07 C53.56 6.61, 55.41 14.23, 57.75 20.1 C60.08 25.98, 62.28 32.14, 61.45 38.34 C60.62 44.54, 58.33 52.88, 52.78 57.3 C47.24 61.73, 35.38 65.63, 28.19 64.9 C20.99 64.16, 13.82 58.25, 9.61 52.91 C5.39 47.56, 3.26 39.07, 2.89 32.83 C2.51 26.59, 6.57 18.22, 7.37 15.48 C8.17 12.73, 7.64 16.3, 7.69 16.37" stroke="#5c940d" stroke-width="2" fill="none"></path></g><g stroke-linecap="round"><g transform="translate(788.6449008674324 160.9476573787214) rotate(0 32.80274213381739 73.93348096884179)"><path d="M0.14 0.04 C-12.59 3.52, -52.96 12.31, -74.42 23.11 C-95.87 33.92, -124.43 49.34, -128.61 64.87 C-132.78 80.39, -126.68 102.04, -99.47 116.27 C-72.27 130.5, -9.7 150.48, 34.63 150.27 C78.96 150.06, 140.04 130.01, 166.51 114.99 C192.98 99.98, 201.67 77.34, 193.45 60.18 C185.24 43.03, 149.29 21.96, 117.23 12.07 C85.18 2.18, 20.99 2.58, 1.12 0.83 M-3.23 -2.4 C-15.31 0.04, -48.1 7.06, -69.41 18.86 C-90.73 30.66, -126.12 51.97, -131.1 68.4 C-136.09 84.83, -127.61 104.86, -99.3 117.42 C-70.99 129.99, -5.89 144.71, 38.75 143.79 C83.4 142.88, 142.48 126.38, 168.58 111.91 C194.68 97.44, 203.03 73.52, 195.37 56.98 C187.72 40.44, 155.57 22.51, 122.64 12.68 C89.71 2.85, 18.43 -0.1, -2.22 -1.99" stroke="#5c940d" stroke-width="4" fill="none"></path></g></g><g stroke-linecap="round"><g transform="translate(786.9290015558424 157.7351025529105) rotate(56.50460372560219 33.91463017316096 71.53537674780327)"><path d="M0.04 -2.58 C-12.08 0.81, -49.35 9.46, -70.45 20.45 C-91.55 31.44, -121.4 47.25, -126.56 63.35 C-131.71 79.44, -128.97 103.29, -101.4 117.01 C-73.83 130.73, -5.99 145.67, 38.85 145.65 C83.7 145.63, 142.05 131.37, 167.69 116.88 C193.32 102.4, 200.4 76.45, 192.67 58.73 C184.95 41.01, 153.31 20.7, 121.33 10.58 C89.36 0.46, 20.79 -0.14, 0.83 -2 M-3.38 2.19 C-15.95 5.93, -51.17 12.74, -71.93 23.39 C-92.69 34.03, -122.89 50.19, -127.94 66.05 C-133 81.91, -129.69 105.36, -102.27 118.57 C-74.84 131.78, -8.82 145.93, 36.63 145.31 C82.07 144.68, 144.14 128.48, 170.4 114.83 C196.65 101.18, 202.51 80.79, 194.17 63.38 C185.82 45.97, 153.13 20.57, 120.33 10.38 C87.52 0.2, 16.68 4.35, -2.67 2.29" stroke="#5c940d" stroke-width="4" fill="none"></path></g></g><g stroke-linecap="round"><g transform="translate(782.0040004414911 160.21026303274894) rotate(118.6814122905976 31.794329681151794 73.11867794338008)"><path d="M-2.58 1.39 C-14.79 5.13, -52.2 12.49, -73.11 22.5 C-94.03 32.5, -123.49 44.97, -128.08 61.42 C-132.67 77.88, -127.71 107, -100.65 121.23 C-73.6 135.47, -10.8 147.68, 34.23 146.82 C79.27 145.97, 143.42 130.1, 169.58 116.1 C195.74 102.1, 199.51 80.47, 191.22 62.83 C182.93 45.19, 152.05 20.5, 119.85 10.29 C87.64 0.07, 18.07 3.52, -2 1.54 M1.22 -0.32 C-11.49 2.53, -54.13 7.34, -76.04 17.91 C-97.96 28.47, -126.11 46.66, -130.29 63.08 C-134.47 79.5, -129.19 102.43, -101.12 116.44 C-73.05 130.45, -6.16 147.59, 38.14 147.12 C82.44 146.65, 139.04 127.97, 164.67 113.63 C190.31 99.28, 199.7 78.35, 191.93 61.07 C184.15 43.79, 149.75 20.26, 118.03 9.93 C86.31 -0.39, 21.13 1.36, 1.61 -0.88" stroke="#5c940d" stroke-width="4" fill="none"></path></g></g><g stroke-linecap="round" transform="translate(139.06416894358267 127.97812789978744) rotate(0 31.83250354279113 31.83250354279116)"><path d="M15.37 3.93 C20.89 0.28, 31.38 -1.9, 38.14 -0.75 C44.9 0.41, 51.64 4.91, 55.94 10.85 C60.23 16.79, 63.88 27.87, 63.9 34.88 C63.92 41.9, 61.02 48.37, 56.07 52.94 C51.11 57.51, 41 61.12, 34.16 62.29 C27.33 63.47, 20.45 63.24, 15.08 59.98 C9.71 56.71, 4.32 49.11, 1.95 42.7 C-0.42 36.29, -3.8 28.6, 0.84 21.5 C5.49 14.4, 23.13 3.45, 29.81 0.1 C36.49 -3.24, 40.74 0.77, 40.93 1.43 M27.5 0.65 C34.25 -1.13, 43.21 0.65, 49.13 4.41 C55.05 8.17, 60.96 16.53, 63.01 23.2 C65.05 29.86, 63.81 38.01, 61.39 44.41 C58.97 50.81, 54.03 57.97, 48.48 61.61 C42.92 65.25, 34.64 67.62, 28.06 66.23 C21.49 64.84, 13.67 58.78, 9.04 53.28 C4.4 47.77, 0.28 39.82, 0.26 33.21 C0.23 26.59, 4.56 19.19, 8.9 13.59 C13.24 7.99, 23.02 1.74, 26.3 -0.39 C29.58 -2.53, 28.28 -0.38, 28.58 0.8" stroke="none" stroke-width="0" fill="#7950f2"></path><path d="M36.37 0.38 C43.16 0.92, 51.99 5.53, 56.54 10.78 C61.1 16.03, 63.88 25.43, 63.69 31.87 C63.49 38.32, 59.19 44.19, 55.37 49.46 C51.54 54.73, 46.89 62.02, 40.76 63.47 C34.62 64.92, 24.96 61.34, 18.54 58.18 C12.11 55.02, 4.85 50.69, 2.2 44.49 C-0.45 38.3, 0.64 27.39, 2.63 21.01 C4.63 14.64, 6.11 9.01, 14.18 6.24 C22.26 3.46, 43.4 3.03, 51.09 4.36 C58.78 5.69, 61.15 13.43, 60.33 14.2 M21.89 0.74 C27.54 -2.66, 35.29 -3.17, 41.61 -0.96 C47.93 1.25, 55.71 8.25, 59.82 14.01 C63.94 19.77, 67.73 26.69, 66.29 33.59 C64.85 40.48, 56.29 49.94, 51.18 55.4 C46.08 60.85, 42.14 66.43, 35.68 66.34 C29.22 66.24, 18.27 58.94, 12.43 54.83 C6.59 50.73, 2.36 48.38, 0.66 41.7 C-1.05 35.02, -0.42 21.4, 2.18 14.76 C4.78 8.12, 13.09 3.64, 16.26 1.85 C19.43 0.06, 20.12 3.87, 21.2 4.02" stroke="#5f3dc4" stroke-width="2" fill="none"></path></g><g stroke-linecap="round"><g transform="translate(138.6449008674324 90.9476573787214) rotate(0 34.589565917798495 74.88815180573008)"><path d="M-0.12 0.35 C-11.88 4.06, -51.56 10.81, -72.64 21.46 C-93.73 32.11, -122.58 47.89, -126.61 64.27 C-130.65 80.64, -124.07 105.4, -96.86 119.72 C-69.65 134.04, -7.22 151.15, 36.65 150.17 C80.51 149.19, 139.86 128.7, 166.32 113.85 C192.77 98.99, 203.01 78.9, 195.38 61.05 C187.74 43.19, 153.15 16.82, 120.52 6.73 C87.89 -3.36, 19.42 1.94, -0.38 0.49 M-3.62 -1.92 C-15.65 2.31, -54.58 13.38, -75.32 24.95 C-96.05 36.51, -124.71 51.17, -128.03 67.47 C-131.35 83.77, -122.14 108.61, -95.26 122.75 C-68.39 136.89, -10.7 152.94, 33.22 152.28 C77.14 151.62, 142.2 134.44, 168.28 118.78 C194.36 103.12, 197.9 75.93, 189.7 58.32 C181.5 40.7, 150.01 23.22, 119.07 13.08 C88.14 2.95, 24.65 0.35, 4.1 -2.51" stroke="#5f3dc4" stroke-width="4" fill="none"></path></g></g><g stroke-linecap="round"><g transform="translate(136.92900155584243 87.73510255291049) rotate(56.50460372560219 34.3415631181237 70.87142635739733)"><path d="M0.35 -0.8 C-11.53 2.95, -50.85 11.31, -72.1 22.44 C-93.35 33.57, -122.85 49.86, -127.16 65.96 C-131.47 82.06, -125.6 105.78, -97.94 119.02 C-70.29 132.27, -5.33 145.49, 38.76 145.45 C82.84 145.42, 140.74 132.71, 166.54 118.81 C192.34 104.9, 201.96 80.31, 193.54 62.02 C185.11 43.73, 148.17 19.14, 115.99 9.08 C83.82 -0.97, 20.15 3.3, 0.49 1.68 M-2.9 -3.71 C-15.11 -0.83, -53.48 6.96, -74.48 17.82 C-95.48 28.68, -125.13 44.14, -128.87 61.45 C-132.62 78.75, -124.5 107.75, -96.94 121.67 C-69.38 135.6, -7.79 145.65, 36.47 145 C80.73 144.36, 142.12 131.99, 168.63 117.79 C195.13 103.6, 203.49 78.1, 195.5 59.82 C187.52 41.53, 153.85 18.15, 120.73 8.07 C87.62 -2.01, 17.13 1.01, -3.19 -0.67" stroke="#5f3dc4" stroke-width="4" fill="none"></path></g></g><g stroke-linecap="round"><g transform="translate(132.00400044149114 90.21026303274894) rotate(118.6814122905976 36.13490150667397 71.40336552813045)"><path d="M-0.8 -0.26 C-12.64 3.33, -50.34 11.04, -71.12 21.89 C-91.9 32.75, -120.88 48.33, -125.46 64.87 C-130.05 81.41, -125.23 107.67, -98.64 121.13 C-72.06 134.6, -10.98 146.37, 34.04 145.68 C79.06 144.98, 144.76 131.67, 171.5 116.97 C198.25 102.27, 203.37 75.33, 194.51 57.49 C185.65 39.66, 150.48 19.86, 118.34 9.96 C86.21 0.05, 21.51 -0.55, 1.68 -1.93 M3.95 -2.87 C-8.18 1.18, -51.27 13.74, -72.97 25.62 C-94.67 37.5, -122.08 53.3, -126.26 68.41 C-130.43 83.52, -125.36 103.46, -98.01 116.29 C-70.67 129.11, -6.44 145.57, 37.84 145.35 C82.11 145.13, 141.11 128.94, 167.64 114.96 C194.17 100.98, 205.66 79.06, 197 61.47 C188.35 43.88, 148.77 19.27, 115.71 9.42 C82.66 -0.43, 17.79 3.72, -1.35 2.4" stroke="#5f3dc4" stroke-width="4" fill="none"></path></g></g><g transform="translate(500.3378563067124 136.00528564991535) rotate(0 22 12.5)"><text x="0" y="18" font-family="Virgil, Segoe UI Emoji" font-size="20px" fill="#5c940d" text-anchor="start" style="white-space: pre;" direction="ltr">test</text></g></svg>