<svg width="997" height="712" viewBox="0 0 997 712" fill="none" xmlns="http://www.w3.org/2000/svg">
<g id="ReactDrawings 1" clip-path="url(#clip0)">
<g id="AtomB">
<g id="Group">
<path id="Vector" d="M393.234 526.788C397.784 522.478 407.104 517.128 414.004 516.908C420.894 516.698 429.614 520.878 434.584 525.498C439.554 530.118 442.774 538.128 443.824 544.628C444.864 551.128 443.954 558.458 440.864 564.488C437.764 570.518 431.074 578.088 425.244 580.808C419.414 583.528 411.904 583.338 405.874 580.828C399.844 578.328 392.794 571.878 389.064 565.778C385.344 559.678 380.634 552.288 383.514 544.228C386.384 536.158 399.794 521.288 406.314 517.378C412.844 513.478 422.374 520.308 422.664 520.798L393.234 526.788ZM406.834 518.428C413.404 517.548 422.804 520.248 429.004 523.668C435.204 527.088 441.424 533.358 444.014 538.948C446.594 544.538 446.264 551.338 444.534 557.208C442.804 563.078 439.594 570.268 433.644 574.178C427.694 578.078 416.444 581.548 408.834 580.628C401.234 579.708 392.354 573.748 388.004 568.668C383.654 563.578 382.894 557.098 382.734 550.118C382.584 543.138 382.894 532.558 387.084 526.778C391.284 521.008 404.424 516.718 407.884 515.468C411.344 514.218 407.924 518.198 407.824 519.268" fill="#61DBFB"/>
<path id="Vector_2" d="M390.494 526.878C394.174 521.898 403.104 521.798 409.424 520.608C415.754 519.418 422.744 516.618 428.454 519.748C434.174 522.878 440.854 532.838 443.704 539.388C446.554 545.928 447.894 552.288 445.554 558.998C443.214 565.698 435.934 575.588 429.664 579.618C423.394 583.648 414.654 584.498 407.934 583.158C401.214 581.818 393.964 576.728 389.364 571.558C384.754 566.388 380.474 559.278 380.324 552.128C380.164 544.988 386.914 532.578 388.444 528.688C389.974 524.798 389.024 527.948 389.494 528.788M423.184 517.168C429.614 518.058 437.594 523.698 441.274 529.778C444.944 535.848 446.224 546.498 445.254 553.618C444.284 560.738 440.034 567.818 435.464 572.498C430.884 577.188 424.144 581.198 417.794 581.718C411.434 582.248 403.014 579.438 397.324 575.648C391.624 571.858 385.534 565.468 383.644 558.998C381.754 552.528 383.224 543.348 385.984 536.848C388.744 530.348 391.954 522.008 400.184 519.998C408.424 517.988 428.294 522.388 435.414 524.788C442.524 527.198 443.784 534.458 442.884 534.458L423.184 517.168Z" stroke="#61DBFB" stroke-width="2" stroke-linecap="round"/>
</g>
<g id="Group_2">
<g id="Group_3">
<path id="Vector_3" d="M377.945 479.168C364.915 482.588 328.915 488.988 308.135 499.858C287.355 510.728 257.095 527.958 253.265 544.388C249.445 560.828 257.045 583.898 285.185 598.448C313.325 613.008 377.675 632.288 422.125 631.698C466.575 631.118 525.795 610.398 551.885 594.938C577.975 579.478 587.025 556.388 578.675 538.928C570.315 521.478 535.155 499.848 501.775 490.228C468.405 480.608 397.975 482.538 378.425 481.238M381.655 481.218C369.235 485.328 331.455 493.718 310.345 503.918C289.235 514.118 259.345 526.898 254.985 542.428C250.625 557.958 257.085 582.508 284.185 597.098C311.285 611.678 373.365 629.948 417.575 629.948C461.775 629.958 522.945 611.838 549.405 597.108C575.865 582.388 584.075 559.348 576.345 541.608C568.615 523.858 535.375 500.398 503.025 490.638C470.685 480.888 402.385 484.448 382.295 483.078L381.655 481.218Z" stroke="#61DBFB" stroke-width="4" stroke-linecap="round"/>
</g>
</g>
<g id="Group_4">
<g id="Group_5">
<path id="Vector_4" d="M456.534 477.568C446.569 470.265 416.032 445.757 395.016 435.382C374.001 425.007 346.314 410.856 330.442 415.304C314.563 419.757 295.958 432.776 299.755 462.089C303.547 491.393 327.394 553.34 353.192 591.164C378.977 628.985 427.802 674.678 454.509 689.033C481.211 703.38 503.631 694.839 513.398 677.271C523.173 659.698 522.371 616.592 513.158 583.609C503.94 550.617 467.516 497.353 458.098 479.351M456.157 481.438C446.711 473.923 419.813 446.541 398.831 434.404C377.849 422.268 346.42 404.095 330.243 408.625C314.069 413.14 297.704 430.758 301.779 461.541C305.854 492.324 329.807 555.772 354.699 593.332C379.591 630.893 425.15 673.027 451.135 686.925C477.12 700.823 500.196 693.562 510.615 676.69C521.034 659.819 522.621 617.949 513.673 585.691C504.729 553.44 466.172 500.521 456.925 483.161L456.157 481.438Z" stroke="#61DBFB" stroke-width="4" stroke-linecap="round"/>
</g>
</g>
<g id="Group_6">
<g id="Group_7">
<path id="Vector_5" d="M493.532 556.938C496.43 544.64 507.466 507.944 508.162 484.65C508.852 461.364 509.213 428.471 497.676 417.202C486.139 405.932 464.897 399.486 438.94 417.054C412.979 434.631 363.157 483.78 341.923 522.636C320.684 561.502 310.111 621.043 311.52 650.242C312.938 679.445 331.489 696.855 350.409 697.836C369.325 698.826 401.103 679.598 425.029 656.155C448.961 632.703 482.511 573.147 493.986 557.152M490.558 559.209C493.495 547.297 507.96 511.041 509.305 487.726C510.65 464.411 511.132 431.505 498.641 419.314C486.144 407.131 459.952 397.898 434.35 414.588C408.753 431.27 366.165 479.657 345.044 519.431C323.928 559.218 307.64 622.871 307.65 653.254C307.659 683.636 325.644 700.85 345.115 701.722C364.581 702.602 400.267 682.23 424.45 658.505C448.643 634.786 478.78 576.008 490.242 559.39L490.558 559.209Z" stroke="#61DBFB" stroke-width="4" stroke-linecap="round"/>
</g>
</g>
</g>
<g id="AtomG">
<g id="Group_8">
<path id="Vector_6" d="M845.654 208.178C850.474 213.118 852.384 223.368 852.494 230.148C852.594 236.928 850.124 243.488 846.294 248.848C842.464 254.198 836.304 260.628 829.514 262.258C822.724 263.888 812.064 261.948 805.544 258.628C799.024 255.298 793.044 248.988 790.384 242.308C787.714 235.618 787.514 225.378 789.574 218.518C791.624 211.648 796.814 204.668 802.684 201.098C808.554 197.528 816.544 194.128 824.784 197.098C833.014 200.078 847.634 212.398 852.114 218.948C856.594 225.498 852.324 235.818 851.654 236.398L845.654 208.178ZM800.104 207.438C803.334 202.408 808.484 197.348 814.384 196.798C820.284 196.238 828.894 200.458 835.514 204.098C842.134 207.738 851.994 212.088 854.124 218.628C856.244 225.158 851.234 237.068 848.264 243.308C845.284 249.558 841.734 253.448 836.254 256.108C830.774 258.778 821.984 260.898 815.384 259.288C808.774 257.668 801.384 251.378 796.634 246.418C791.894 241.458 786.524 236.268 786.924 229.518C787.334 222.778 796.814 209.418 799.064 205.958C801.304 202.488 800.724 208.188 800.384 208.738" fill="#40C057"/>
<path id="Vector_7" d="M797.314 213.208C799.844 207.138 803.524 198.828 810.054 196.798C816.584 194.768 830.364 197.498 836.494 201.048C842.624 204.588 844.474 212.208 846.814 218.078C849.144 223.958 851.344 230.118 850.514 236.318C849.684 242.518 847.394 250.858 841.844 255.278C836.304 259.708 824.444 263.608 817.254 262.878C810.054 262.138 802.884 256.228 798.674 250.888C794.454 245.538 792.324 237.048 791.954 230.808C791.574 224.568 795.634 216.198 796.434 213.458C797.234 210.708 796.704 214.278 796.754 214.348M820.474 198.538C827.184 197.748 836.124 199.188 841.194 203.838C846.274 208.478 850.054 219.488 850.944 226.408C851.844 233.318 849.734 239.748 846.554 245.328C843.364 250.898 838.194 257.178 831.844 259.858C825.504 262.538 814.814 263.738 808.484 261.418C802.154 259.088 797.264 251.978 793.884 245.888C790.504 239.808 787.124 231.888 788.204 224.908C789.294 217.918 791.084 207.218 800.394 203.988C809.704 200.748 835.624 201.988 844.074 205.488C852.524 208.998 852.064 224.508 851.094 224.998L820.474 198.538Z" stroke="#5C940D" stroke-width="2" stroke-linecap="round"/>
</g>
<g id="Group_9">
<g id="Group_10">
<path id="Vector_8" d="M785.415 158.548C773.335 160.988 740.545 168.008 719.235 179.808C697.915 191.608 662.525 212.918 657.545 229.348C652.555 245.778 661.035 265.808 689.345 278.368C717.655 290.938 782.755 305.658 827.395 304.738C872.045 303.828 931.125 287.328 957.225 272.858C983.325 258.388 991.675 234.468 984.015 217.928C976.365 201.388 944.215 183.458 911.285 173.628C878.355 163.798 807.075 160.848 786.425 158.958M788.785 160.988C776.055 164.468 735.685 173.258 714.225 184.058C692.775 194.868 664.215 210.288 660.035 225.818C655.865 241.338 661.965 262.988 689.175 277.218C716.375 291.448 778.945 311.428 823.275 311.218C867.605 311.008 928.685 290.958 955.155 275.938C981.625 260.928 990.315 238.288 982.095 221.128C973.885 203.978 937.935 182.908 905.875 173.018C873.825 163.128 809.635 163.528 789.765 161.778L788.785 160.988Z" stroke="#5C940D" stroke-width="4" stroke-linecap="round"/>
</g>
</g>
<g id="Group_11">
<g id="Group_12">
<path id="Vector_9" d="M858.091 159.9C848.035 151.481 822.919 125.868 802.581 114.433C782.251 102.993 752.108 86.7265 736.095 91.2678C720.077 95.8008 702.348 111.502 706.464 141.659C710.585 171.824 735.22 234.689 760.819 272.249C786.422 309.795 834.186 352.617 860.061 366.983C885.931 381.34 906.169 374.975 916.085 358.412C925.995 341.84 929.137 300.562 919.533 267.585C909.916 234.606 867.36 177.82 858.399 160.547M863.956 160.119C854.441 151.883 826.659 125.576 805.85 114.045C785.04 102.514 755.382 86.3466 739.109 90.9286C722.848 95.5134 704.471 110.961 708.245 141.524C712.018 172.087 736.998 236.905 761.761 274.288C786.529 311.679 830.622 352.469 856.856 365.854C883.076 379.237 908.623 370.82 919.135 354.594C929.652 338.377 929.128 300.783 919.918 268.529C910.714 236.284 873.373 178.77 863.909 161.098L863.956 160.119Z" stroke="#5C940D" stroke-width="4" stroke-linecap="round"/>
</g>
</g>
<g id="Group_13">
<g id="Group_14">
<path id="Vector_10" d="M892.9 241.752C896.5 229.234 912.745 189.517 913.987 165.222C915.243 140.924 912.795 107.498 900.396 95.95C887.997 84.4023 865.346 78.0294 839.583 95.9313C813.82 113.833 766.68 164.29 745.831 203.38C724.982 242.47 714.206 301.09 714.485 330.458C714.769 359.839 728.624 378.122 747.513 379.599C766.407 381.067 803.56 362.181 827.846 339.31C852.123 316.435 881.871 258.413 893.204 242.363M893.224 237.598C895.803 225.091 907.3 188.739 908.554 165.59C909.821 142.437 913.02 110.607 900.792 98.6855C888.554 86.7589 860.627 77.1345 835.155 94.0448C809.68 110.941 768.828 160.176 747.971 200.094C727.1 240.015 710.235 303.911 709.962 333.58C709.689 363.25 726.856 376.938 746.31 378.131C765.764 379.325 802.245 364.083 826.657 340.734C851.082 317.381 881.444 254.692 892.814 238.035L893.224 237.598Z" stroke="#5C940D" stroke-width="4" stroke-linecap="round"/>
</g>
</g>
</g>
<g id="AtomP">
<g id="Group_15">
<path id="Vector_11" d="M178.468 167.286C183.988 163.636 194.478 161.456 201.238 162.606C207.998 163.766 214.738 168.266 219.038 174.206C223.328 180.146 226.978 191.226 226.998 198.236C227.018 205.256 224.118 211.726 219.168 216.296C214.208 220.866 204.098 224.476 197.258 225.646C190.428 226.826 183.548 226.596 178.178 223.336C172.808 220.066 167.418 212.466 165.048 206.056C162.678 199.646 159.298 191.956 163.938 184.856C168.588 177.756 186.228 166.806 192.908 163.456C199.588 160.116 203.838 164.126 204.028 164.786L178.468 167.286ZM190.598 164.006C197.348 162.226 206.308 164.006 212.228 167.766C218.148 171.526 224.058 179.886 226.108 186.556C228.148 193.216 226.908 201.366 224.488 207.766C222.068 214.166 217.128 221.326 211.578 224.966C206.018 228.606 197.738 230.976 191.158 229.586C184.588 228.196 176.768 222.136 172.138 216.636C167.498 211.126 163.378 203.176 163.358 196.566C163.328 189.946 167.658 182.546 171.998 176.946C176.338 171.346 186.118 165.096 189.398 162.966C192.678 160.826 191.378 162.976 191.678 164.156" fill="#7950F2"/>
<path id="Vector_12" d="M184.988 164.096C190.638 160.696 198.388 160.186 204.708 162.396C211.028 164.606 218.808 171.606 222.918 177.366C227.038 183.126 230.828 190.046 229.388 196.946C227.948 203.836 219.388 213.296 214.278 218.756C209.178 224.206 205.238 229.786 198.778 229.696C192.318 229.596 181.368 222.296 175.528 218.186C169.688 214.086 165.458 211.736 163.758 205.056C162.048 198.376 162.678 184.756 165.278 178.116C167.878 171.476 176.188 166.996 179.358 165.206C182.528 163.416 183.218 167.226 184.298 167.376M199.468 163.736C206.258 164.276 215.088 168.886 219.638 174.136C224.198 179.386 226.978 188.786 226.788 195.226C226.588 201.676 222.288 207.546 218.468 212.816C214.638 218.086 209.988 225.376 203.858 226.826C197.718 228.276 188.058 224.696 181.638 221.536C175.208 218.376 167.948 214.046 165.298 207.846C162.648 201.656 163.738 190.746 165.728 184.366C167.728 177.996 169.208 172.366 177.278 169.596C185.358 166.816 206.498 166.386 214.188 167.716C221.878 169.046 224.248 176.786 223.428 177.556L199.468 163.736Z" stroke="#5F3DC4" stroke-width="2" stroke-linecap="round"/>
</g>
<g id="Group_16">
<g id="Group_17">
<path id="Vector_13" d="M159.058 124.405C147.028 128.635 108.098 139.705 87.3583 151.275C66.6283 162.835 37.9683 177.495 34.6483 193.795C31.3283 210.095 40.5383 234.935 67.4183 249.075C94.2883 263.215 151.978 279.265 195.898 278.605C239.818 277.945 304.878 260.765 330.958 245.105C357.038 229.445 360.578 202.255 352.378 184.645C344.178 167.025 312.688 149.545 281.748 139.405C250.818 129.275 187.328 126.675 166.778 123.815M162.558 126.675C150.798 130.385 111.118 137.135 90.0383 147.785C68.9483 158.435 40.0983 174.215 36.0683 190.595C32.0283 206.965 38.6083 231.725 65.8183 246.045C93.0283 260.365 155.458 277.475 199.328 276.495C243.188 275.515 302.538 255.025 328.998 240.175C355.448 225.315 365.688 205.225 358.058 187.375C350.418 169.515 315.828 143.145 283.198 133.055C250.568 122.965 182.098 128.265 162.298 126.815L162.558 126.675Z" stroke="#5F3DC4" stroke-width="4" stroke-linecap="round"/>
</g>
</g>
<g id="Group_18">
<g id="Group_19">
<path id="Vector_14" d="M236.947 121.768C227.807 113.175 200.136 85.4762 179.49 73.957C158.844 62.4378 129.589 46.2437 113.089 52.6777C96.5927 59.0978 76.8899 81.8735 80.4911 112.539C84.084 143.209 109.693 200.117 134.661 236.668C159.62 273.225 203.815 317.593 230.287 331.864C256.745 346.132 282.624 339.031 293.459 322.28C304.307 305.532 305.223 264.55 295.351 231.368C285.485 198.194 244.065 141.076 234.252 123.204M236.314 126.084C226.631 118.247 197.959 90.0701 176.95 78.4914C155.942 66.9127 126.077 51.3017 110.272 56.5926C94.467 61.8835 77.9257 79.869 82.1492 110.242C86.3588 140.613 111.184 202.081 135.549 238.826C159.9 275.57 202.453 316.84 228.283 330.684C254.121 344.523 279.936 338.975 290.542 321.86C301.143 304.736 301.263 260.36 291.893 227.972C282.52 195.599 243.822 144.859 234.323 127.57L236.314 126.084Z" stroke="#5F3DC4" stroke-width="4" stroke-linecap="round"/>
</g>
</g>
<g id="Group_20">
<g id="Group_21">
<path id="Vector_15" d="M272.779 204.402C275.048 191.817 284.709 147.986 284.702 123.246C284.694 98.5074 283.988 66.8775 272.738 55.9585C261.483 45.0482 241.557 39.9262 217.175 57.7628C192.806 75.5954 147.539 124.045 126.48 162.997C105.427 201.941 91.3137 261.472 90.8456 291.456C90.3775 321.441 104.093 342.041 123.681 342.886C143.265 343.739 183.851 320.827 208.359 296.551C232.863 272.283 260.355 213.381 270.7 197.223M272.769 198.982C275.302 186.872 286.632 150.097 287.086 126.66C287.532 103.217 287.772 70.3155 275.46 58.3593C263.152 46.3943 237.801 38.0197 213.231 54.8872C188.657 71.7411 149.016 119.678 128.015 159.505C107.022 199.337 87.1668 263.364 87.2296 293.878C87.2876 324.401 108.465 341.822 128.368 342.612C148.263 343.396 182.513 322.044 206.623 298.599C230.738 275.167 262.316 218.694 273.044 201.959L272.769 198.982Z" stroke="#5F3DC4" stroke-width="4" stroke-linecap="round"/>
</g>
</g>
</g>
</g>
<defs>
<clipPath id="clip0">
<rect width="996.677" height="711.724" fill="white"/>
</clipPath>
</defs>
</svg>
